 <svg  version="1.0" xmlns="http://www.w3.org/2000/svg"  width="300.000000pt" height="197.000000pt" viewBox="0 0 300.000000 197.000000"  preserveAspectRatio="xMidYMid meet">  <g transform="translate(0.000000,197.000000) scale(0.100000,-0.100000)" fill="#17bee8" stroke="none"> <path d="M838 1178 c2 -15 8 -28 13 -28 5 0 6 7 3 15 -4 8 -1 15 6 15 8 0 11 -9 8 -25 -3 -14 -1 -25 3 -25 5 0 9 4 9 9 0 5 3 16 6 24 3 10 -5 20 -23 29 -29 14 -29 14 -25 -14z"/> <path d="M601 1189 c-15 -6 -21 -14 -17 -25 3 -9 6 -20 6 -25 0 -5 4 -9 9 -9 4 0 6 11 3 25 -3 16 0 25 8 25 7 0 10 -7 6 -15 -3 -9 0 -15 8 -15 9 0 12 8 8 25 -2 14 -5 25 -6 24 0 0 -12 -5 -25 -10z"/> <path d="M644 1189 c-3 -6 -2 -15 4 -21 7 -7 2 -18 -18 -35 -16 -13 -34 -40 -41 -61 -6 -20 -16 -43 -22 -49 -6 -9 -6 -13 3 -13 7 0 10 -7 6 -15 -3 -8 -2 -15 3 -15 4 0 6 -12 4 -27 -4 -22 -2 -25 6 -13 8 12 11 7 10 -20 l0 -35 -18 35 c-10 19 -16 40 -14 47 4 9 -2 12 -17 11 -15 -2 -25 4 -31 20 -6 15 -5 21 2 17 6 -4 7 3 3 21 -5 20 -4 25 6 19 9 -5 10 -2 5 15 -4 14 -3 25 5 30 7 4 10 16 8 26 -4 16 -7 14 -18 -11 -33 -77 -29 -205 7 -232 9 -7 14 -16 10 -19 -8 -9 47 -51 90 -69 35 -15 170 -18 179 -4 3 5 12 9 21 9 22 0 83 48 83 64 0 8 6 16 14 19 7 3 16 23 20 44 3 21 9 49 12 63 l6 25 -20 -24 c-12 -15 -25 -22 -35 -18 -11 4 -15 0 -15 -11 0 -9 -5 -30 -13 -47 l-13 -30 -4 33 c-5 48 -21 39 -19 -11 2 -41 3 -43 32 -39 29 3 29 2 11 -12 -36 -29 -56 -15 -56 39 0 13 -4 27 -10 30 -5 3 -10 -1 -10 -9 0 -9 -7 -16 -15 -16 -8 0 -15 -4 -15 -9 0 -15 -50 -19 -87 -8 -46 14 -101 70 -108 111 -8 39 13 93 47 127 33 31 43 60 20 53 -14 -5 -13 -3 2 10 17 14 17 16 4 16 -9 0 -20 -5 -24 -11z m-14 -296 c0 -47 -13 -58 -46 -39 l-29 17 33 -4 c27 -3 31 -1 26 15 -5 16 1 38 12 38 2 0 4 -12 4 -27z m88 -35 c16 -16 15 -28 -3 -28 -8 0 -15 2 -15 4 0 2 -3 11 -6 20 -7 19 7 21 24 4z m62 -2 c0 -8 -5 -18 -11 -22 -8 -4 -1 -13 17 -23 22 -11 25 -16 12 -19 -42 -9 -66 30 -43 68 9 15 25 12 25 -4z m-116 -25 c8 -12 -20 -22 -40 -14 -13 5 -13 7 -2 14 17 11 35 11 42 0z m184 0 c11 -7 11 -9 -2 -14 -20 -8 -48 2 -40 14 7 11 25 11 42 0z m-132 -26 c-11 -8 -29 -15 -40 -15 -21 1 -21 1 -2 15 11 8 29 15 40 15 21 -1 21 -1 2 -15z"/> <path d="M811 1183 c12 -15 12 -16 -3 -10 -24 9 -13 -17 22 -52 32 -32 52 -91 43 -131 -3 -15 0 -36 7 -47 10 -16 11 -15 7 10 -2 15 0 27 4 27 5 0 6 7 3 15 -4 8 -1 15 6 15 10 0 10 3 0 15 -6 8 -9 19 -5 25 3 5 1 10 -5 10 -7 0 -10 6 -7 13 2 6 -13 29 -33 49 -24 24 -34 40 -27 47 11 11 1 31 -15 31 -6 0 -5 -7 3 -17z"/> <path d="M1060 1134 c-13 -33 -13 -74 0 -74 6 0 10 17 10 39 0 30 4 40 20 44 23 6 54 -19 44 -35 -4 -6 -7 -20 -8 -32 -1 -16 -9 -22 -36 -26 -32 -5 -33 -7 -12 -14 37 -13 72 17 72 61 0 61 -70 90 -90 37z"/> <path d="M1170 1135 c-14 -38 -9 -85 12 -96 29 -16 66 -10 82 13 14 20 17 21 28 6 7 -9 24 -20 38 -23 33 -8 80 27 80 59 0 30 -35 66 -66 66 -30 0 -69 -40 -77 -79 -7 -32 -27 -44 -62 -35 -25 6 -33 29 -26 77 5 41 19 32 23 -15 2 -36 7 -44 26 -46 12 -2 22 1 22 7 0 6 -6 11 -13 11 -8 0 -18 17 -23 37 -11 45 -31 53 -44 18z m206 -10 c24 -24 24 -26 8 -50 -21 -31 -54 -32 -82 -2 l-22 24 24 26 c31 33 40 34 72 2z"/> <path d="M1327 1123 c-11 -10 -8 -51 3 -58 15 -10 39 13 35 33 -2 9 -4 20 -4 25 -1 9 -25 9 -34 0z"/> <path d="M1456 1136 c-30 -27 -32 -38 -10 -71 31 -47 124 -25 124 29 0 23 -45 66 -69 66 -11 0 -31 -11 -45 -24z m80 -11 c24 -24 24 -26 8 -50 -21 -31 -54 -32 -82 -2 l-22 24 24 26 c31 33 40 34 72 2z"/> <path d="M1487 1124 c-11 -11 -8 -52 3 -59 16 -10 37 12 36 37 -1 22 -25 35 -39 22z"/> <path d="M1613 1154 c-21 -9 -27 -71 -9 -99 14 -21 19 -23 45 -14 15 5 33 21 40 35 22 50 -26 99 -76 78z m55 -16 c17 -17 15 -48 -5 -70 -24 -26 -50 -23 -56 8 -9 47 1 64 44 73 3 0 10 -4 17 -11z"/> <path d="M1637 1123 c-4 -3 -7 -17 -7 -30 0 -33 24 -24 28 10 3 26 -7 35 -21 20z"/> <path d="M1796 1152 c-12 -20 -17 -80 -6 -87 7 -5 11 -1 10 11 -6 53 -1 64 30 64 34 0 49 -22 30 -44 -14 -18 8 -56 45 -80 28 -19 49 -21 39 -5 -4 7 3 19 15 28 22 17 22 17 -12 13 l-34 -4 4 43 c3 44 18 63 41 54 7 -3 10 0 7 5 -7 12 -35 13 -53 2 -7 -5 -16 -28 -21 -53 l-9 -44 -1 42 c-1 31 -6 45 -20 53 -23 12 -58 13 -65 2z"/> <path d="M2030 1140 c-39 -39 -11 -110 43 -110 48 0 73 54 46 99 -22 37 -59 41 -89 11z m60 0 c23 -12 35 -58 19 -76 -17 -21 -56 -17 -73 8 -20 29 -20 34 4 58 23 23 25 23 50 10z"/> <path d="M2057 1124 c-12 -12 -8 -52 6 -57 15 -5 37 2 37 13 0 5 -9 6 -20 3 -11 -3 -20 0 -20 6 0 6 9 11 21 11 12 0 19 5 17 13 -5 14 -31 21 -41 11z"/> <path d="M2255 1150 c-3 -5 1 -10 10 -10 9 0 22 -14 29 -31 13 -30 14 -31 25 -13 12 18 12 18 8 -1 -3 -11 -8 -28 -12 -37 -6 -15 -2 -18 26 -17 19 1 25 4 14 6 -17 3 -20 11 -19 49 0 28 6 49 15 55 20 12 5 11 -24 -2 -18 -8 -30 -8 -45 0 -14 7 -23 8 -27 1z"/> <path d="M2423 1148 c-22 -35 -33 -62 -32 -82 1 -19 2 -19 6 -2 4 14 7 16 13 6 5 -8 8 2 8 25 0 38 16 59 40 50 7 -3 10 0 7 5 -9 14 -32 12 -42 -2z"/> <path d="M920 1123 c0 -13 5 -23 11 -23 7 0 9 -10 5 -26 -5 -17 -3 -23 4 -19 12 7 13 -15 1 -33 -6 -10 -11 -3 -15 23 -8 41 -26 75 -40 75 -4 0 -3 -6 3 -14 7 -8 13 -25 15 -38 1 -13 6 -29 10 -36 4 -7 4 -16 1 -22 -15 -25 8 -27 29 -3 25 29 23 48 -11 113 -13 24 -13 24 -13 3z"/> <path d="M2156 1127 c-4 -9 -5 -33 -2 -52 6 -29 11 -35 31 -35 23 0 25 4 25 51 0 34 -4 48 -11 43 -6 -3 -9 -24 -7 -45 2 -26 -1 -39 -9 -39 -7 0 -13 19 -15 48 -3 34 -6 42 -12 29z"/> <path d="M2361 1100 c0 -40 2 -42 11 -22 8 16 8 28 0 45 -9 19 -11 17 -11 -23z"/> <path d="M1940 1115 c0 -8 6 -12 14 -9 8 3 17 1 21 -5 3 -7 -2 -11 -14 -11 -12 0 -21 -7 -21 -15 0 -18 5 -18 31 -5 10 6 19 17 19 25 0 8 -9 19 -19 25 -26 13 -31 13 -31 -5z"/> <path d="M2233 1090 c3 -58 21 -59 24 0 1 27 -1 39 -6 31 -7 -11 -10 -11 -14 0 -4 8 -5 -6 -4 -31z"/> <path d="M2440 1116 c0 -9 7 -12 20 -9 11 3 20 0 20 -6 0 -6 -9 -11 -20 -11 -11 0 -20 -7 -20 -15 0 -21 14 -19 36 6 18 20 18 21 -1 35 -24 18 -35 18 -35 0z"/> <path d="M543 1046 c-10 -44 -3 -80 11 -57 4 6 4 16 1 21 -3 6 -3 15 1 22 11 17 14 58 5 58 -4 0 -12 -20 -18 -44z"/> <path d="M2281 1075 c-1 -12 -6 -26 -13 -33 -14 -14 1 -16 21 -3 12 8 12 14 4 33 -11 22 -12 22 -12 3z"/> <path d="M1825 1060 c3 -6 -4 -10 -17 -11 -20 0 -18 -3 12 -17 19 -9 43 -25 54 -34 19 -17 74 -34 82 -25 3 3 -8 8 -25 12 -16 3 -46 24 -65 46 -34 36 -55 52 -41 29z"/> <path d="M1484 886 c-3 -9 -4 -22 -1 -30 4 -9 -1 -17 -11 -19 -14 -4 28 -2 62 2 4 0 6 12 4 26 -4 17 -1 25 9 25 10 0 12 -6 8 -19 -8 -25 26 -46 43 -29 14 14 16 35 4 42 -5 3 -8 -3 -8 -12 1 -26 -18 -26 -24 0 -5 18 -14 24 -43 26 -27 2 -39 -1 -43 -12z m36 -21 c0 -26 -14 -33 -25 -15 -9 14 1 40 15 40 5 0 10 -11 10 -25z"/> <path d="M1676 869 c-7 -36 -28 -35 -36 2 -3 13 -9 19 -13 13 -3 -6 0 -20 8 -32 13 -17 24 -20 72 -19 56 2 58 3 61 30 3 24 7 27 25 21 12 -3 18 -3 14 2 -4 4 -34 9 -66 11 -58 3 -59 2 -65 -28z m35 12 c6 10 9 7 9 -12 0 -16 -5 -26 -15 -26 -10 0 -15 10 -14 26 0 14 3 20 6 12 5 -11 7 -11 14 0z m44 -16 c0 -14 -6 -25 -12 -25 -7 0 -13 11 -13 25 0 14 6 25 13 25 6 0 12 -11 12 -25z"/> <path d="M1831 867 c-1 -18 -6 -27 -13 -24 -7 2 -12 10 -10 16 1 6 -2 11 -8 11 -15 0 -12 -16 5 -30 21 -17 38 0 32 31 -4 21 -4 21 -6 -4z"/> </g> </svg> 